<svg width="22" height="22" viewBox="0 0 22 22" fill="none" xmlns="http://www.w3.org/2000/svg">
<path fill-rule="evenodd" clip-rule="evenodd" d="M16.5 0H5.5C2.42 0 0 2.42 0 5.5V16.5C0 19.58 2.42 22 5.5 22H16.5C19.58 22 22 19.58 22 16.5V5.5C22 2.42 19.58 0 16.5 0ZM19.8 16.5C19.8 18.37 18.37 19.8 16.5 19.8H5.5C3.63 19.8 2.2 18.37 2.2 16.5V5.5C2.2 3.63 3.63 2.2 5.5 2.2H16.5C18.37 2.2 19.8 3.63 19.8 5.5V16.5ZM11 5.5C7.92 5.5 5.5 7.92 5.5 11C5.5 14.08 7.92 16.5 11 16.5C14.08 16.5 16.5 14.08 16.5 11C16.5 7.92 14.08 5.5 11 5.5ZM11 14.3C9.13 14.3 7.7 12.87 7.7 11C7.7 9.13 9.13 7.7 11 7.7C12.87 7.7 14.3 9.13 14.3 11C14.3 12.87 12.87 14.3 11 14.3ZM17.6 5.49994C17.6 6.10746 17.1075 6.59994 16.5 6.59994C15.8925 6.59994 15.4 6.10746 15.4 5.49994C15.4 4.89243 15.8925 4.39994 16.5 4.39994C17.1075 4.39994 17.6 4.89243 17.6 5.49994Z" fill="#D5D5D5"/>
</svg>
