<svg xmlns="http://www.w3.org/2000/svg" width="26" height="25" viewBox="28 23 26 25"><g data-name="Group 376"><path d="M29.5 23h23a1.5 1.5 0 0 1 1.5 1.5 1.5 1.5 0 0 1-1.5 1.5h-23a1.5 1.5 0 0 1-1.5-1.5 1.5 1.5 0 0 1 1.5-1.5z" fill-rule="evenodd" data-name="Rectangle 180"/><path d="M29.5 34h23a1.5 1.5 0 0 1 1.5 1.5 1.5 1.5 0 0 1-1.5 1.5h-23a1.5 1.5 0 0 1-1.5-1.5 1.5 1.5 0 0 1 1.5-1.5z" fill-rule="evenodd" data-name="Rectangle 181"/><path d="M29.5 45h23a1.5 1.5 0 0 1 1.5 1.5 1.5 1.5 0 0 1-1.5 1.5h-23a1.5 1.5 0 0 1-1.5-1.5 1.5 1.5 0 0 1 1.5-1.5z" fill-rule="evenodd" data-name="Rectangle 182"/></g></svg>