<svg xmlns="http://www.w3.org/2000/svg" width="38" height="29.909" viewBox="924 237.646 38 29.909"><g data-name="camera"><g data-name="Group 348"><g data-name="Group 347"><path d="M960.736 242.305a4.086 4.086 0 0 0-2.998-1.264h-5.997v-.072c0-.903-.36-1.77-.975-2.348a3.305 3.305 0 0 0-2.348-.975h-10.836c-.94 0-1.77.36-2.385.975a3.305 3.305 0 0 0-.975 2.348v.072h-5.96c-1.192 0-2.24.47-2.998 1.264-.759.759-1.264 1.843-1.264 2.999v17.988c0 1.192.47 2.24 1.264 2.999.758.758 1.842 1.264 2.998 1.264h29.476c1.192 0 2.24-.47 2.998-1.264.758-.76 1.264-1.843 1.264-2.999v-17.988c0-1.192-.47-2.24-1.264-2.999Zm-.614 20.987h-.036c0 .65-.253 1.229-.687 1.662a2.319 2.319 0 0 1-1.661.686h-29.476c-.65 0-1.228-.253-1.662-.686a2.319 2.319 0 0 1-.686-1.662v-17.988c0-.65.253-1.229.686-1.662a2.319 2.319 0 0 1 1.662-.686h6.972a.971.971 0 0 0 .975-.976v-1.047c0-.398.144-.759.397-1.012a1.419 1.419 0 0 1 1.012-.397h10.8c.398 0 .759.144 1.012.397.252.253.397.614.397 1.012v1.047c0 .542.433.976.975.976h6.972c.65 0 1.228.252 1.661.686.434.433.687 1.011.687 1.662v17.988Z" fill="#dbdbdb" fill-rule="evenodd" data-name="Path 233"/><path d="M943 245.412a8.902 8.902 0 0 0-6.285 2.6 8.815 8.815 0 0 0-2.601 6.286 8.902 8.902 0 0 0 2.6 6.285 8.815 8.815 0 0 0 6.286 2.601 8.902 8.902 0 0 0 6.285-2.6 8.815 8.815 0 0 0 2.6-6.286 8.902 8.902 0 0 0-2.6-6.285 8.902 8.902 0 0 0-6.285-2.601Zm4.912 13.835c-1.264 1.228-2.998 2.023-4.912 2.023-1.915 0-3.648-.795-4.913-2.023a6.905 6.905 0 0 1-2.023-4.913c0-1.914.795-3.648 2.023-4.913A6.905 6.905 0 0 1 943 247.4c1.914 0 3.648.794 4.912 2.022a6.906 6.906 0 0 1 2.023 4.913c.036 1.915-.758 3.648-2.023 4.913Z" fill="#dbdbdb" fill-rule="evenodd" data-name="Path 234"/><path d="M954.09 247.046a1.77 1.77 0 1 1 0 .1z" fill="#dbdbdb" fill-rule="evenodd" data-name="Ellipse 19"/></g></g></g></svg>