<?xml version="1.0" encoding="utf-8"?>
<!-- Generator: Adobe Illustrator 27.5.0, SVG Export Plug-In . SVG Version: 6.00 Build 0)  -->
<svg version="1.1" id="Layer_1" xmlns="http://www.w3.org/2000/svg" xmlns:xlink="http://www.w3.org/1999/xlink" x="0px" y="0px"
	 viewBox="0 0 18.2 18.2" style="enable-background:new 0 0 18.2 18.2;" xml:space="preserve">
<path d="M11.2,9.1l5.9-5.9c0.6-0.6,0.6-1.5,0-2.1s-1.5-0.6-2.1,0L9.1,7L3.1,1.1c-0.5-0.6-1.5-0.6-2.1,0s-0.6,1.5,0,2.1L7,9.1L1.1,15
	c-0.6,0.6-0.6,1.5,0,2.1c0.3,0.3,0.7,0.4,1.1,0.4s0.8-0.1,1.1-0.4l5.8-5.9l5.9,5.9c0.3,0.3,0.7,0.4,1.1,0.4c0.4,0,0.8-0.1,1.1-0.4
	c0.6-0.6,0.6-1.5,0-2.1L11.2,9.1z"/>
</svg>
