<svg xmlns="http://www.w3.org/2000/svg" width="32.643" height="29.675" viewBox="1 1 32.643 29.675"><path d="M24.74 5.451a4.451 4.451 0 1 1 8.903 0 4.451 4.451 0 0 1-8.903 0ZM2.484 6.935h17.805a1.484 1.484 0 1 0 0-2.967H2.484a1.484 1.484 0 0 0 0 2.967Zm8.902 4.451a4.451 4.451 0 0 0-4.184 2.968H2.484a1.484 1.484 0 0 0 0 2.967h4.718a4.451 4.451 0 1 0 4.184-5.935Zm20.773 2.968h-11.87a1.484 1.484 0 0 0 0 2.967h11.87a1.484 1.484 0 0 0 0-2.967ZM14.354 24.74H2.484a1.484 1.484 0 1 0 0 2.968h11.87a1.484 1.484 0 1 0 0-2.968Zm17.805 0H27.44a4.451 4.451 0 1 0 0 2.968h4.719a1.484 1.484 0 1 0 0-2.968Z" fill="#757575" fill-rule="evenodd" data-name="Path 258"/></svg>