<svg xmlns="http://www.w3.org/2000/svg" width="59" height="60" viewBox="-23915.32 -1217 59 60"><g data-name="CompositeLayer"><path d="M-23891.321-1217h11a24 24 0 0 1 24 24v12a24 24 0 0 1-24 24h-11a24 24 0 0 1-24-24v-12a24 24 0 0 1 24-24z" fill="#44ce00" fill-rule="evenodd" data-name="Rectangle 183"/><path d="M-23880.056-1195.072a3.46 3.46 0 1 1 6.92 0 3.46 3.46 0 0 1-6.92 0Zm-17.297 1.153h13.838a1.153 1.153 0 1 0 0-2.306h-13.838a1.153 1.153 0 0 0 0 2.306Zm6.92 3.46a3.46 3.46 0 0 0-3.253 2.306h-3.667a1.153 1.153 0 0 0 0 2.306h3.667a3.46 3.46 0 1 0 3.252-4.613Zm16.143 2.306h-9.225a1.153 1.153 0 0 0 0 2.306h9.225a1.153 1.153 0 0 0 0-2.306Zm-13.838 8.071h-9.225a1.153 1.153 0 0 0 0 2.307h9.225a1.153 1.153 0 1 0 0-2.307Zm13.838 0h-3.667a3.46 3.46 0 1 0 0 2.307h3.667a1.153 1.153 0 1 0 0-2.307Z" fill="#fff" fill-rule="evenodd" data-name="Path 258"/><g data-name="Glyph"><path d="M-23880.056-1195.072a3.46 3.46 0 1 1 6.92 0 3.46 3.46 0 0 1-6.92 0Zm-17.297 1.153h13.838a1.153 1.153 0 1 0 0-2.306h-13.838a1.153 1.153 0 0 0 0 2.306Zm6.92 3.46a3.46 3.46 0 0 0-3.253 2.306h-3.667a1.153 1.153 0 0 0 0 2.306h3.667a3.46 3.46 0 1 0 3.252-4.613Zm16.143 2.306h-9.225a1.153 1.153 0 0 0 0 2.306h9.225a1.153 1.153 0 0 0 0-2.306Zm-13.838 8.071h-9.225a1.153 1.153 0 0 0 0 2.307h9.225a1.153 1.153 0 1 0 0-2.307Zm13.838 0h-3.667a3.46 3.46 0 1 0 0 2.307h3.667a1.153 1.153 0 1 0 0-2.307Z" fill="#fff" fill-rule="evenodd" data-name="Path 258"/></g></g></svg>