<svg xmlns="http://www.w3.org/2000/svg" width="29" height="29"><path d="M24.753 18.747a14.444 14.444 0 0 0-5.51-3.456 8.38 8.38 0 0 0 3.64-6.908C22.883 3.76 19.123 0 14.5 0 9.878 0 6.117 3.76 6.117 8.383a8.38 8.38 0 0 0 3.64 6.908 14.444 14.444 0 0 0-5.51 3.456A14.405 14.405 0 0 0 0 29h2.266c0-6.746 5.488-12.234 12.234-12.234 6.746 0 12.234 5.488 12.234 12.234H29c0-3.873-1.508-7.514-4.247-10.253ZM14.5 14.5a6.124 6.124 0 0 1-6.117-6.117A6.124 6.124 0 0 1 14.5 2.266a6.124 6.124 0 0 1 6.117 6.117A6.124 6.124 0 0 1 14.5 14.5Z" fill-rule="evenodd" data-name="Path 257"/></svg>