<svg xmlns="http://www.w3.org/2000/svg" width="69.665" height="22.343" viewBox="182.356 7.468 69.665 22.343"><path d="M223.187 29.792h-1.97v-8.197h4.522a4.74 4.74 0 0 1 2.386.399l-.03-.012a1.932 1.932 0 0 1 1.006 1.825v-.006l.002.074c0 .94-.567 1.75-1.38 2.102l-.016.006c.39.14.714.377.956.685l.004.004a2.374 2.374 0 0 1 .325 1.508l.002-.012v1.622h-1.966v-1.026a2.354 2.354 0 0 0-.316-1.614l.006.01a1.898 1.898 0 0 0-1.448-.362l.012-.002h-2.095v2.996Zm0-6.504v1.841h2.381a1.875 1.875 0 0 0 .979-.174l-.01.006a.888.888 0 0 0 .405-.746c0-.015 0-.029-.002-.044v.002c.002-.016.002-.033.002-.05a.784.784 0 0 0-.402-.686l-.004-.002a1.87 1.87 0 0 0-.937-.154h.008l-2.42.007Zm-17.47 6.502h-7.755v-8.195h7.878l2.41 2.686 2.491-2.686h6.258c2.222 0 3.302.884 3.302 2.7 0 1.848-1.117 2.747-3.406 2.747h-2.45v2.746h-3.807l-2.411-2.708-2.507 2.71h-.002Zm6.778-7.317-3.008 3.233 3.008 3.337v-6.57Zm-12.58 3.978v1.63h4.815l2.227-2.404-2.141-2.389h-4.903v1.49h4.3v1.671l-4.298.002Zm14.53-3.16v2.086h2.53c.775 0 1.22-.395 1.22-1.084 0-.658-.414-1.005-1.198-1.005l-2.551.002Zm34.917 6.503h-3.783v-1.761h3.767a1.083 1.083 0 0 0 .796-.205l-.002.001a.721.721 0 0 0 .23-.528v-.031a.675.675 0 0 0-.238-.515.994.994 0 0 0-.693-.182h.004l-.362-.011c-1.77-.047-3.773-.101-3.773-2.526 0-1.181.74-2.441 2.809-2.441h3.904v1.746h-3.571a1.341 1.341 0 0 0-.797.159l.007-.005a.636.636 0 0 0-.285.585v-.002.021c0 .275.178.508.426.589l.004.002a2.17 2.17 0 0 0 .759.093h-.006l1.063.027a3.064 3.064 0 0 1 2.228.664l-.006-.004a.94.94 0 0 1 .153.153l.002.002.023 3.12a3.052 3.052 0 0 1-2.673 1.047l.014.002Zm-7.645 0H237.9v-1.761h3.798a1.117 1.117 0 0 0 .803-.205l-.003.001a.723.723 0 0 0 .228-.528v-.019a.702.702 0 0 0-.238-.527 1.02 1.02 0 0 0-.703-.182h.004l-.36-.011c-1.763-.047-3.765-.101-3.765-2.526 0-1.181.736-2.441 2.801-2.441h3.926v1.746h-3.593a1.327 1.327 0 0 0-.792.159l.008-.005a.685.685 0 0 0 .128 1.199l.004.002a2.198 2.198 0 0 0 .768.092h-.006l1.055.028a3.114 3.114 0 0 1 2.241.666l-.005-.006a2.289 2.289 0 0 1 .585 1.744v-.01c.006 1.71-1.03 2.58-3.072 2.58l.005.004Zm-4.99 0h-6.542v-8.201h6.536v1.693h-4.581v1.49h4.475v1.671h-4.475v1.63l4.587.008v1.709Zm3.814-14.103h-3.99l-.762-1.827h-4.07l-.739 1.827h-2.292a4.22 4.22 0 0 1-2.85-.912l.01.006a4.108 4.108 0 0 1-1.045-3.146l-.001.016a4.284 4.284 0 0 1 1.06-3.207l-.004.003a3.936 3.936 0 0 1 2.991-.952l-.016-.002h1.897v1.748h-1.857a1.864 1.864 0 0 0-1.51.486l.002-.002a2.697 2.697 0 0 0-.564 1.866v-.01a2.819 2.819 0 0 0 .544 1.932l-.006-.008a1.903 1.903 0 0 0 1.373.422h-.008.879l2.77-6.446h2.942l3.316 7.743V7.485h2.983l3.441 5.707V7.485h2.013v8.192h-2.795l-3.716-6.151v6.151l.004.014Zm-6.773-6.81-1.35 3.268h2.705l-1.355-3.268ZM214.8 15.687h-1.959V7.49h4.506a4.562 4.562 0 0 1 2.402.405l-.029-.012c.599.335.995.964.995 1.686 0 .047-.002.091-.004.136V9.7v.06c0 .943-.56 1.754-1.366 2.118l-.015.005c.389.147.716.384.965.686l.004.003a2.348 2.348 0 0 1 .324 1.516l.002-.012v1.609h-1.977l-.008-1.034v-.155a2.149 2.149 0 0 0-.315-1.45l.006.01a1.925 1.925 0 0 0-1.44-.35l.011-.002h-2.1v2.981l-.002.002Zm0-6.49v1.82h2.377a1.767 1.767 0 0 0 .977-.174l-.009.003a.846.846 0 0 0 .406-.722c0-.018 0-.037-.002-.054v.002c.002-.016.002-.033.002-.05a.756.756 0 0 0-.41-.672l-.004-.002a1.987 1.987 0 0 0-.935-.155h.006l-2.408.004Zm-20.743 6.49h-3.98l-.752-1.827h-4.08l-.76 1.827h-2.129l3.51-8.196h2.909l3.331 7.757V7.49h3.196l2.563 5.558 2.356-5.558h3.261v8.192h-2.013l-.004-6.41-2.84 6.412h-1.718l-2.848-6.423v6.423l-.002.002Zm-6.782-6.806-1.334 3.268h2.675l-1.341-3.268Zm36.56 6.804h-1.997V7.491h2v8.192l-.002.002Zm-12.36 0h-6.532V7.491h6.543v1.704h-4.584v1.477h4.474v1.682h-4.478v1.637h4.584v1.692l-.007.002Z" fill="#fff" fill-rule="evenodd" data-name="Path 464"/></svg>