<svg xmlns="http://www.w3.org/2000/svg" width="50.481" height="39.148" viewBox="97.063 0 50.481 39.148"><path d="M142.885 34.784h-.028a1.94 1.94 0 0 0-1.429.626l-.002.002a2.297 2.297 0 0 0-.598 1.549c0 .597.227 1.142.6 1.55l-.002-.001c.357.386.866.628 1.431.628h.028-.002a1.509 1.509 0 0 0 1.317-.608l.002-.005v.522h.89V33.22h-.89v2.178a1.555 1.555 0 0 0-1.239-.616c-.027 0-.055 0-.082.002h.004Zm-8.343 0h-.045c-.567 0-1.08.236-1.442.614a2.336 2.336 0 0 0-.6 1.565c0 .602.229 1.152.602 1.566l-.002-.002a2 2 0 0 0 1.444.615h.047-.002c.028.002.057.002.089.002a1.47 1.47 0 0 0 1.195-.613l.004-.004v.522h.923v-4.141h-.921v.49a1.525 1.525 0 0 0-1.223-.616c-.023 0-.047 0-.069.002h.004-.004Zm-4.02 0c-.025-.002-.053-.002-.082-.002a2.179 2.179 0 0 0 0 4.358c.03 0 .059 0 .086-.002h-.004l.081.002c.53 0 1.015-.185 1.398-.495l-.004.004-.43-.736a1.717 1.717 0 0 1-.993.369h-.004c-.024.002-.053.002-.08.002-.352 0-.67-.141-.902-.371a1.456 1.456 0 0 1 .002-1.902l-.002.002a1.2 1.2 0 0 1 .866-.37h.041-.002c.406.003.78.14 1.078.372l-.004-.004.43-.736a2.287 2.287 0 0 0-1.425-.493h-.05.002l-.002.002Zm-8.008 0h-.049c-.561 0-1.066.236-1.423.614-.361.391-.585.915-.585 1.492 0 .028 0 .055.002.083v-.004c-.002.027-.002.059-.002.09 0 .58.23 1.105.6 1.49.373.37.888.599 1.455.599.022 0 .045 0 .067-.002h-.004l.08.002c.615 0 1.176-.222 1.612-.59l-.004.005-.43-.674c-.318.281-.736.456-1.193.46h-.002a1.165 1.165 0 0 1-1.256-1.007v-.006h3.097v-.367c.002-.032.002-.067.002-.102 0-.568-.21-1.086-.558-1.48l.002.002a1.837 1.837 0 0 0-1.366-.607h-.043.002l-.004.002Zm-6.04.124v.828h.858v1.873c0 1.016.485 1.533 1.44 1.533h.034a1.96 1.96 0 0 0 1.072-.318l-.008.004-.247-.768c-.23.132-.505.21-.797.216h-.002c-.389 0-.585-.226-.585-.673v-1.865h1.472v-.828h-1.472v-1.257h-.92v1.257l-.845-.002Zm-3.86 3.003-.4.707a3.075 3.075 0 0 0 1.724.522h.06-.005a2.325 2.325 0 0 0 1.404-.375l-.01.006c.306-.21.506-.56.506-.956v-.028.002c0-.69-.485-1.099-1.44-1.227l-.428-.062c-.472-.08-.707-.224-.707-.428 0-.306.257-.46.767-.46h.01c.481 0 .933.126 1.323.346l-.014-.008.37-.736a3.075 3.075 0 0 0-1.58-.432c-.038 0-.077 0-.114.002h.005c-.03-.002-.068-.002-.106-.002-.431 0-.832.14-1.156.375l.006-.004c-.28.22-.46.56-.46.942v.042-.002c0 .67.486 1.073 1.442 1.195l.398.063c.489.082.736.225.736.43 0 .345-.314.522-.952.522h-.017c-.51 0-.984-.161-1.37-.436l.007.006v-.004Zm-3.499-3.129h-.049c-.559 0-1.066.236-1.42.615a2.386 2.386 0 0 0 .002 3.133l-.003-.003c.358.38.862.615 1.423.615h.051-.002c.024.002.051.002.08.002.505 0 .955-.24 1.24-.613l.001-.004v.522h.89v-4.141h-.89v.49a1.662 1.662 0 0 0-1.291-.614h-.032.002l-.002-.002Zm28.831.124v4.141h.89v-2.33c0-.71.298-1.071.888-1.071h.02c.194 0 .379.045.542.125l-.008-.004.275-.86a1.417 1.417 0 0 0-.585-.123c-.022 0-.041 0-.063.002h.004-.034c-.445 0-.833.245-1.036.609l-.004.005v-.49l-.889-.004Zm-12.543 0v4.141h.921v-2.33c0-.71.298-1.071.89-1.071h.019c.194 0 .379.045.541.125l-.007-.004.276-.86a1.53 1.53 0 0 0-.608-.123h-.037.002-.036c-.445 0-.832.245-1.034.609l-.004.005v-.49l-.923-.002Zm-20.979.736c.61 0 .92.37.92 1.099v2.3h.921v-2.606l.002-.065a1.6 1.6 0 0 0-.447-1.11 1.745 1.745 0 0 0-1.196-.472h-.017a1.582 1.582 0 0 0-1.437.73l-.004.006a1.481 1.481 0 0 0-1.384-.736h.004-.017a1.44 1.44 0 0 0-1.176.61l-.004.004v-.49h-.917v4.141h.92V36.75c0-.732.342-1.1 1.013-1.1.61 0 .921.372.921 1.1v2.3h.89v-2.3c0-.734.34-1.1 1.01-1.1l-.002-.007ZM131.936.004h-.065c-3.19 0-6.152.974-8.607 2.642l.053-.033a16.584 16.584 0 0 1 5.413 8.026l.032.118c.463 1.462.728 3.142.728 4.887 0 1.725-.261 3.388-.744 4.954l.032-.117c-.99 3.293-2.9 6.059-5.43 8.083l-.031.025a15.375 15.375 0 0 0 8.607 2.607c2.198 0 4.289-.457 6.183-1.282l-.1.04c3.765-1.596 6.701-4.533 8.258-8.196l.037-.1c.785-1.786 1.242-3.868 1.242-6.057 0-2.189-.457-4.271-1.281-6.156l.039.099c-1.596-3.767-4.54-6.704-8.21-8.254l-.1-.038C136.21.467 134.135.01 131.954.01h-.021.002V.004Zm-19.26 0h-.021c-2.181 0-4.258.457-6.134 1.28l.098-.04c-3.775 1.588-6.717 4.527-8.276 8.195l-.037.1c-.785 1.787-1.243 3.87-1.243 6.058 0 2.189.458 4.271 1.282 6.156l-.04-.099c1.597 3.765 4.533 6.702 8.196 8.258l.1.037c1.794.786 3.887 1.243 6.083 1.243 3.21 0 6.189-.974 8.662-2.642l-.055.035a16.41 16.41 0 0 1-5.43-8.026l-.029-.116c-.45-1.444-.708-3.105-.708-4.826a16.77 16.77 0 0 1 6.14-12.987l.03-.023A15.195 15.195 0 0 0 112.74 0h-.07.003l.002.004Zm9.63 3.343a15.3 15.3 0 0 0-5.247 7.541l-.03.108a15.218 15.218 0 0 0-.706 4.63c0 1.637.253 3.214.722 4.696l-.029-.11c.96 3.123 2.81 5.733 5.255 7.614l.035.025a15.142 15.142 0 0 0 5.262-7.531l.03-.106c.44-1.372.693-2.95.693-4.588 0-1.654-.26-3.246-.736-4.742l.03.11c-.967-3.12-2.81-5.732-5.242-7.624l-.035-.025-.002.002Zm20.7 34.933h-.033c-.343 0-.654-.147-.87-.383a1.412 1.412 0 0 1 .002-1.875l-.001.003a1.254 1.254 0 0 1 1.81 0 1.434 1.434 0 0 1-.003 1.886l.002-.002c-.22.23-.53.371-.871.371h-.036.002-.002Zm-8.371 0h-.043c-.334 0-.634-.141-.846-.367a1.508 1.508 0 0 1 .002-1.904l-.002.002a1.15 1.15 0 0 1 .846-.37h.045-.002.035c.344 0 .654.148.868.384.22.237.353.555.353.904v.04-.002l.002.053c0 .345-.128.66-.34.9l.002-.001c-.218.224-.52.361-.855.361-.022 0-.046 0-.067-.002h.004l-.002.002Zm-25.396 0-.057.002c-.34 0-.646-.141-.861-.37a1.508 1.508 0 0 1 .002-1.904l-.002.003a1.19 1.19 0 0 1 .924-.367h-.002.045c.336 0 .638.147.844.383l.002.002a1.487 1.487 0 0 1-.002 1.886l.002-.002a1.157 1.157 0 0 1-.85.369h-.043.002l-.004-.002Zm14.323-1.688h-2.145a1.079 1.079 0 0 1 2.147-.004v.004h-.002Z" fill="#fff" fill-rule="evenodd" data-name="Path 463"/></svg>