<svg xmlns="http://www.w3.org/2000/svg" width="46.865" height="15.03" viewBox="122.674 5.024 46.865 15.03"><path d="M150.141 20.041h-1.325v-5.514h3.042a3.19 3.19 0 0 1 1.605.268l-.02-.008a1.3 1.3 0 0 1 .676 1.228v-.004l.002.05a1.54 1.54 0 0 1-.929 1.414l-.01.003c.262.094.48.254.643.461l.003.003a1.603 1.603 0 0 1 .218 1.014l.002-.007v1.09h-1.323v-.69a1.585 1.585 0 0 0-.213-1.086l.004.007a1.274 1.274 0 0 0-.973-.243l.008-.002h-1.41v2.016Zm0-4.375v1.238h1.602a1.263 1.263 0 0 0 .659-.117l-.007.004a.598.598 0 0 0 .273-.501c0-.01 0-.02-.002-.03v.001c.002-.01.002-.022.002-.034a.527.527 0 0 0-.271-.46l-.002-.002a1.259 1.259 0 0 0-.631-.104h.005l-1.628.005ZM138.39 20.04h-5.218v-5.513h5.3l1.622 1.807 1.676-1.807h4.21c1.494 0 2.221.595 2.221 1.816 0 1.243-.752 1.848-2.292 1.848h-1.647v1.847H141.7l-1.623-1.821-1.687 1.823Zm4.559-4.922-2.023 2.174 2.023 2.245v-4.42Zm-8.462 2.676v1.096h3.24l1.497-1.617-1.44-1.607h-3.299v1.003h2.894v1.123l-2.892.002Zm9.775-2.127v1.404h1.702c.52 0 .82-.266.82-.73 0-.442-.278-.675-.805-.675l-1.717.001Zm23.488 4.375h-2.544v-1.185h2.534a.727.727 0 0 0 .535-.138l-.001.002a.483.483 0 0 0 .154-.356v-.021a.453.453 0 0 0-.16-.346.668.668 0 0 0-.465-.122h.002l-.243-.008c-1.19-.031-2.538-.068-2.538-1.7 0-.794.497-1.641 1.889-1.641h2.627V15.7h-2.403a.902.902 0 0 0-.536.107l.005-.003a.427.427 0 0 0-.191.393v.013c0 .185.119.342.286.396l.002.002a1.458 1.458 0 0 0 .51.062h-.003l.715.018a2.062 2.062 0 0 1 1.498.447l-.004-.003c.04.032.074.066.103.103l.002.002.016 2.099a2.054 2.054 0 0 1-1.799.704l.01.001Zm-5.142 0h-2.567v-1.185h2.554a.743.743 0 0 0 .54-.138l-.002.002a.484.484 0 0 0 .153-.356v-.013a.474.474 0 0 0-.16-.354.688.688 0 0 0-.472-.122h.002l-.242-.008c-1.186-.031-2.532-.068-2.532-1.7 0-.794.494-1.641 1.883-1.641h2.642V15.7h-2.418a.891.891 0 0 0-.532.107l.005-.003a.46.46 0 0 0 .086.806l.003.002c.13.04.278.065.434.065l.083-.003h-.004l.71.018a2.095 2.095 0 0 1 1.508.448l-.005-.004a1.537 1.537 0 0 1 .394 1.174v-.007c.004 1.15-.693 1.736-2.067 1.736l.004.002Zm-3.357 0h-4.401v-5.517h4.397v1.14h-3.082v1.002h3.01v1.124h-3.01v1.096l3.086.006v1.149Zm2.565-9.487h-2.683l-.513-1.23h-2.738l-.497 1.23h-1.541a2.838 2.838 0 0 1-1.917-.613l.006.004a2.764 2.764 0 0 1-.703-2.116l-.001.01a2.88 2.88 0 0 1 .714-2.158l-.003.003a2.648 2.648 0 0 1 2.011-.64l-.01-.002h1.276V6.22h-1.25a1.254 1.254 0 0 0-1.016.327l.001-.001a1.816 1.816 0 0 0-.378 1.255v-.007a1.899 1.899 0 0 0 .366 1.3l-.004-.005a1.278 1.278 0 0 0 .923.283h-.005.59l1.864-4.336h1.98l2.23 5.209V5.035h2.006l2.316 3.839V5.035h1.354v5.511h-1.88l-2.5-4.138v4.138l.002.01Zm-4.556-4.58-.907 2.197h1.818l-.911-2.198Zm-12.76 4.577h-1.317V5.04h3.03a3.071 3.071 0 0 1 1.616.272l-.019-.007a1.296 1.296 0 0 1 .667 1.225v-.004.04c0 .635-.378 1.18-.92 1.425l-.01.004c.262.099.482.258.65.46l.002.003a1.579 1.579 0 0 1 .219 1.02l.001-.008v1.082h-1.33l-.005-.695v-.104a1.446 1.446 0 0 0-.212-.975l.004.006a1.295 1.295 0 0 0-.969-.236l.007-.001H144.5v2.006Zm0-4.366V7.41h1.6a1.187 1.187 0 0 0 .657-.117l-.006.003a.57.57 0 0 0 .273-.486c0-.012 0-.025-.002-.036v.001c.002-.01.002-.022.002-.034a.509.509 0 0 0-.276-.452l-.003-.001a1.336 1.336 0 0 0-.63-.104h.005l-1.62.002Zm-13.954 4.366h-2.676l-.507-1.229h-2.746l-.51 1.23h-1.432l2.36-5.514h1.958l2.24 5.218V5.039h2.15l1.725 3.739 1.585-3.739h2.193v5.51h-1.354l-.003-4.312-1.91 4.314h-1.155l-1.917-4.32V10.552Zm-4.563-4.578-.897 2.198h1.8l-.903-2.198Zm24.596 4.577h-1.344V5.04h1.345v5.51l-.001.002Zm-8.316 0h-4.393V5.04h4.401v1.146h-3.083v.994h3.009V8.31h-3.012v1.102h3.083v1.138l-.005.001Z" fill="#ccc" fill-rule="evenodd" data-name="Path 464"/></svg>