<svg xmlns="http://www.w3.org/2000/svg" width="96.493" height="26.121" viewBox="282.39 6.513 96.493 26.121"><g data-name="paypal-logo"><g data-name="Group 320"><g data-name="Group 319"><path d="M299.684 10.769c-.315-.634-.815-1.156-1.435-1.549-.647-.396-1.411-.674-2.284-.838-.888-.161-1.914-.234-3.103-.245l-5.488.004c-.57.007-1.13.451-1.263 1.003l-3.693 16.083c-.134.543.224.999.795.999h2.628c.57 0 1.135-.442 1.261-1l.902-3.904c.12-.544.683-.997 1.26-.997h.752c3.214-.004 5.702-.66 7.49-1.976 1.798-1.317 2.684-3.057 2.684-5.212-.002-.944-.157-1.737-.506-2.368Zm-5.668 5.254c-.794.582-1.898.873-3.323.873h-.643c-.572 0-.922-.452-.798-1.003l.79-3.415c.112-.547.688-1.001 1.252-.997l.862-.006c1.005 0 1.772.174 2.285.511.508.333.762.864.758 1.566.016 1.068-.392 1.89-1.183 2.471Z" fill="#fff" fill-rule="evenodd" data-name="Path 222"/></g></g><g data-name="Group 322"><g data-name="Group 321"><path d="m374.606 9.396-.164.05-.22.03-.27-.041-.138-.134-.063-.211-.004-.316v-1.17h.879v-.361h-.879v-.73h-.435v.73h-.294v.362h.294v1.36l.203.674.598.215.25-.021.266-.052v-.385Z" fill="#fff" fill-rule="evenodd" data-name="Path 223"/></g></g><g data-name="Group 324"><g data-name="Group 323"><path d="m378.682 7.429-.628-.259-.463.094-.471.318-.274-.305-.444-.105-.427.094-.404.26v-.283h-.427v2.555h.425V7.89l.358-.222.356-.088.291.051.144.148.063.245.021.316V9.8h.427V8.165l-.008-.135-.007-.125.363-.231.36-.09.282.051.153.148.053.247.029.312v1.46h.429v-1.66l-.201-.713Z" fill="#fff" fill-rule="evenodd" data-name="Path 224"/></g></g><g data-name="Group 326"><g data-name="Group 325"><path d="M312.358 13.068c-.991-.56-2.557-.839-4.697-.839a20.76 20.76 0 0 0-3.18.247c-.786.12-.863.144-1.347.25-1 .217-1.156 1.215-1.156 1.215l-.322 1.322c-.182.845.304.812.507.741.437-.13.68-.264 1.572-.463.852-.193 1.75-.339 2.462-.33 1.05 0 1.854.112 2.39.338.529.23.793.624.793 1.194l-.046.371-.379.234c-1.491.094-2.569.232-3.876.421-1.279.178-2.4.49-3.333.917-1.001.44-1.744 1.032-2.263 1.784-.501.756-.752 1.673-.752 2.749 0 1.012.364 1.849 1.07 2.496.71.635 1.648.946 2.77.946.71-.004 1.26-.06 1.65-.154l1.273-.438 1.078-.597.991-.655.014.02-.1.42-.006.018v.003c-.107.513.203.935.703.984l.01.012h2.441l.034-.015c.524-.062 1.016-.483 1.13-.984l1.917-8.295.1-.675.045-.634c.008-1.175-.5-2.046-1.493-2.603Zm-4.238 9.326-.41.54-1.033.534c-.486.197-.947.296-1.374.296-.647 0-1.155-.093-1.497-.285l-.508-.986c0-.534.123-.957.385-1.282l1.114-.758a9.635 9.635 0 0 1 1.733-.39c.6-.075 1.788-.211 1.943-.215l.181.32c-.036.181-.373 1.59-.534 2.226Z" fill="#fff" fill-rule="evenodd" data-name="Path 225"/></g></g><g data-name="Group 328"><g data-name="Group 327"><path d="M360.095 13.08c-.997-.56-2.561-.841-4.696-.841a20.01 20.01 0 0 0-3.177.253c-.789.114-.867.14-1.354.243-.997.216-1.152 1.217-1.152 1.217l-.322 1.32c-.18.845.295.807.517.742.439-.13.674-.259 1.558-.465.848-.192 1.754-.333 2.468-.33 1.047 0 1.85.113 2.385.34.532.229.792.627.792 1.192l-.04.37-.375.238a41.68 41.68 0 0 0-3.88.418c-1.275.178-2.4.488-3.335.917-.997.442-1.75 1.033-2.262 1.787-.507.757-.754 1.672-.754 2.738 0 1.02.36 1.857 1.075 2.5.714.633 1.643.951 2.765.951.706-.008 1.255-.053 1.648-.155l1.269-.433 1.087-.597.984-.662.017.021-.09.425-.01.008.004.007c-.118.513.194.938.7.984l.003.01H358.359l.04-.014c.519-.063 1.009-.484 1.118-.991l1.922-8.283.101-.68.056-.635c.002-1.172-.5-2.039-1.501-2.596Zm-4.229 9.325-.426.546-1.025.53c-.486.195-.949.297-1.368.297-.668 0-1.162-.096-1.495-.287l-.513-.982c0-.536.124-.956.375-1.287.255-.312.643-.568 1.126-.756.47-.16 1.052-.29 1.73-.388.597-.075 1.78-.215 1.933-.217l.186.32c-.027.182-.366 1.585-.523 2.224Z" fill="#fff" fill-rule="evenodd" data-name="Path 226"/></g></g><g data-name="Group 330"><g data-name="Group 329"><path d="M347.413 10.828c-.329-.637-.823-1.152-1.447-1.554-.64-.398-1.397-.678-2.284-.839-.87-.155-1.91-.239-3.091-.24l-5.496.003c-.572.01-1.121.454-1.253 1l-3.697 16.09c-.134.546.234.997.793.997l2.632-.003c.559.003 1.131-.445 1.263-.996l.89-3.907c.13-.543.695-1 1.264-.997h.752c3.218 0 5.712-.662 7.507-1.974 1.775-1.326 2.673-3.062 2.673-5.22-.01-.94-.173-1.734-.506-2.36Zm-5.668 5.262c-.792.57-1.899.862-3.315.862h-.655c-.564.005-.93-.454-.804-1.001l.797-3.41c.116-.545.687-1.003 1.255-.997l.852-.006c1.01.006 1.769.173 2.286.51.515.336.758.865.763 1.565.006 1.068-.39 1.892-1.179 2.477Z" fill="#fff" fill-rule="evenodd" data-name="Path 227"/></g></g><g data-name="Group 332"><g data-name="Group 331"><path d="M369.95 9.325c.12-.549-.225-.995-.79-.987h-2.354c-.482 0-.917.358-1.13.798l-.13.203-.118.52-3.29 14.958-.108.46.004.011c-.11.492.193.863.66.934l.04.056h2.445c.479 0 .928-.364 1.133-.812l.127-.191 3.518-15.948-.008-.002Z" fill="#fff" fill-rule="evenodd" data-name="Path 228"/></g></g><g data-name="Group 334"><g data-name="Group 333"><path d="M330.218 12.43c-.622.008-3.15 0-3.15 0-.567 0-1.295.458-1.655 1.003 0 0-3.763 6.459-4.129 7.108l-.436-.006-1.172-7.058c-.13-.555-.71-1.03-1.431-1.03l-2.355.004c-.566 0-.915.452-.787 1.003 0 0 1.788 10.174 2.146 12.57.167 1.32-.02 1.555-.02 1.555l-2.329 4.055c-.344.55-.158 1 .406 1l2.722-.003c.567 0 1.312-.446 1.648-1l10.471-17.71c0 .002 1.007-1.512.071-1.49Z" fill="#fff" fill-rule="evenodd" data-name="Path 229"/></g></g></g></svg>