<svg xmlns="http://www.w3.org/2000/svg" width="17.801" height="18.091"><path d="M17.296 2.634c-.33-.637-.823-1.152-1.447-1.554C15.209.68 14.45.402 13.565.24c-.871-.155-1.91-.24-3.092-.241L4.978.004c-.573.01-1.122.453-1.254.999L.028 17.093c-.134.546.233.998.792.998l2.632-.004c.56.004 1.131-.444 1.264-.995l.89-3.907c.13-.544.694-1.001 1.263-.997h.752c3.218 0 5.712-.663 7.508-1.974 1.774-1.326 2.672-3.063 2.672-5.22-.01-.94-.172-1.734-.505-2.36Zm-5.668 5.262c-.793.57-1.9.861-3.316.861h-.654c-.565.006-.93-.453-.804-1l.796-3.41c.117-.545.687-1.003 1.256-.997l.852-.006c1.01.006 1.768.172 2.285.51.515.336.758.865.764 1.565.006 1.068-.39 1.891-1.18 2.477Z" fill="#fff" fill-rule="evenodd" data-name="Path 227"/></svg>