<svg xmlns="http://www.w3.org/2000/svg" width="59.696" height="18.377" viewBox="-13028.275 -11964.195 59.696 18.377"><g data-name="CompositeLayer"><path d="m-13011.475-11963.87-4.752 12.142-.507-1.833c-.937-2.209-3.598-5.381-6.721-7.38l4.345 14.847 5.134-.009 7.642-17.77-5.14.004Z" fill="#fff" fill-rule="evenodd" data-name="Path 459"/><path d="m-13004.372-11963.89-3.034 17.804h4.852l3.036-17.804h-4.854Z" fill="#fff" fill-rule="evenodd" data-name="Path 458"/><path d="M-13018.576-11962.595c-.282-1.085-1.1-1.408-2.114-1.447h-7.523l-.062.355c5.854 1.42 9.728 4.842 11.335 8.956l-1.636-7.864Z" fill="#fff" fill-rule="evenodd" data-name="Path 460"/><path d="M-12972.505-11963.87h-3.75c-1.164 0-2.03.317-2.542 1.478l-7.204 16.316h5.095s.832-2.194 1.02-2.674l6.214.007c.144.622.591 2.667.591 2.667h4.502l-3.926-17.794Zm-5.985 11.475c.4-1.022 1.934-4.975 1.934-4.975-.027.048.395-1.03.646-1.7l.327 1.535 1.125 5.14h-4.032Z" fill="#fff" fill-rule="evenodd" data-name="Path 462"/><path d="M-12989.684-11960.476a8.959 8.959 0 0 1 3.632.681l.438.206.656-3.858c-.96-.361-2.467-.748-4.347-.748-4.794 0-8.174 2.415-8.2 5.876-.031 2.557 2.407 3.984 4.25 4.837 1.89.873 2.524 1.429 2.515 2.209-.015 1.191-1.507 1.738-2.901 1.738-1.943 0-2.975-.268-4.57-.932l-.624-.285-.683 3.985c1.136.498 3.231.926 5.406.949 5.1 0 8.415-2.387 8.45-6.084.022-2.023-1.273-3.567-4.077-4.834-1.697-.826-2.735-1.375-2.725-2.209 0-.74.88-1.53 2.78-1.53" fill="#fff" fill-rule="evenodd" data-name="Path 461"/></g></svg>