<svg xmlns="http://www.w3.org/2000/svg" width="289.349" height="36.274" viewBox="151 1708.863 289.349 36.274"><g data-name="Layer 1"><g data-name="Group 316"><g data-name="Group 314"><path d="M263.51 1708.863h6.225a2.384 2.384 0 0 1 2.384 2.384v1.822a2.384 2.384 0 0 1-2.384 2.384h-6.224a2.384 2.384 0 0 1-2.385-2.384v-1.822a2.384 2.384 0 0 1 2.385-2.384Z" fill="#fff" fill-rule="evenodd" data-name="Path 221"/><path d="M276.888 1721.086c-2.64-2.54-6.062-3.805-10.268-3.805s-7.68 1.334-10.35 4.002c-2.639 2.64-3.961 5.952-3.961 9.926 0 4.205 1.334 7.576 4.003 10.117 2.691 2.54 6.125 3.805 10.308 3.805 4.182 0 7.541-1.305 10.233-3.921 2.715-2.617 4.078-5.946 4.078-10.001s-1.346-7.576-4.038-10.117Zm-4.792 15.471c-1.444 1.398-3.266 2.1-5.476 2.1s-4.078-.678-5.517-2.036c-1.427-1.357-2.14-3.161-2.14-5.418 0-2.129.707-3.898 2.123-5.314 1.427-1.427 3.272-2.14 5.54-2.14 2.268 0 4.084.678 5.5 2.036 1.438 1.357 2.163 3.167 2.163 5.418 0 2.25-.725 3.956-2.181 5.354Z" fill="#fff" fill-rule="evenodd" data-name="Path 208"/></g><path d="M230.294 1742.747v-23.088a2.384 2.384 0 0 1 2.384-2.384h6.056c3.075 0 5.407.557 6.985 1.786 1.578 1.236 2.367 2.924 2.367 5.07 0 2.733-1.062 4.804-3.185 6.208v.08c1.195.453 2.152 1.219 2.883 2.31.73 1.084 1.096 2.442 1.096 4.06 0 2.785-.98 4.92-2.947 6.405-1.937 1.462-4.484 1.931-7.64 1.931h-5.615a2.384 2.384 0 0 1-2.384-2.384Zm8.353-19.404h-1.99v5.052h2.112c1.961 0 2.947-.899 2.947-2.703 0-.772-.29-1.38-.876-1.833-.586-.453-1.31-.516-2.187-.516Zm.476 10.621h-2.465v5.21c.586.156 1.3.237 2.146.237 2.465 0 3.701-.98 3.701-2.947 0-1.67-1.125-2.506-3.382-2.506Z" fill="#fff" fill-rule="evenodd" data-name="Path 209"/><path d="M157.37 1735.385v7.368a2.384 2.384 0 0 1-2.385 2.384h-1.6a2.384 2.384 0 0 1-2.385-2.384v-23.1a2.374 2.374 0 0 1 2.361-2.378c.841-.006 1.729-.018 2.651-.03 1.833-.028 3.318-.04 4.455-.04 6.869 0 10.303 2.97 10.303 8.91 0 3.818-1.566 6.498-4.693 8.035l5.308 7.187c1.16 1.572.04 3.794-1.915 3.794h-1.751a2.375 2.375 0 0 1-1.955-1.02l-6.057-8.726h-2.35Zm2.784-12.216s-.145.005-.36.017c-.214.012-.545.029-.992.04a55.9 55.9 0 0 1-1.432.018v6.166h2.308c2.89 0 4.34-1.073 4.34-3.225 0-2.013-1.288-3.022-3.858-3.022Z" fill="#fff" fill-rule="evenodd" data-name="Path 210"/><path d="m302.975 1718.771-5.68 14.903c-.26.679-1.223.679-1.484 0l-5.68-14.903a2.382 2.382 0 0 0-2.227-1.531h-1.944a2.381 2.381 0 0 0-2.21 3.266l9.235 23.088a2.376 2.376 0 0 0 2.21 1.497h2.71c.974 0 1.85-.592 2.21-1.497l7.911-19.778 1.324-3.31a2.381 2.381 0 0 0-2.21-3.266h-1.943c-.987 0-1.874.609-2.228 1.531Z" fill="#fff" fill-rule="evenodd" data-name="Path 211"/><path d="m206.666 1743.606 5.68-14.903c.26-.679 1.224-.679 1.485 0l5.679 14.903a2.382 2.382 0 0 0 2.228 1.531h1.943c1.682 0 2.837-1.7 2.21-3.266l-9.235-23.088a2.376 2.376 0 0 0-2.21-1.497h-2.71c-.974 0-1.85.592-2.21 1.497l-9.235 23.088a2.381 2.381 0 0 0 2.21 3.266h1.944c.986 0 1.873-.61 2.227-1.531Z" fill="#fff" fill-rule="evenodd" data-name="Path 212"/><g data-name="Group 315"><path d="M193.226 1734.504h-15.559c-1.462 0-2.65-1.068-2.65-2.384v-1.828c0-1.317 1.188-2.384 2.65-2.384h15.559c1.461 0 2.65 1.067 2.65 2.384v1.828c0 1.316-1.189 2.384-2.65 2.384Z" fill="#fff" fill-rule="evenodd" data-name="Path 213"/><path d="M193.226 1745.137h-15.559c-1.462 0-2.65-1.067-2.65-2.384v-1.828c0-1.316 1.188-2.384 2.65-2.384h15.559c1.461 0 2.65 1.068 2.65 2.384v1.828c0 1.317-1.189 2.384-2.65 2.384Z" fill="#fff" fill-rule="evenodd" data-name="Path 214"/><path d="M193.226 1723.876h-15.559c-1.462 0-2.65-1.067-2.65-2.384v-1.827c0-1.317 1.188-2.384 2.65-2.384h15.559c1.461 0 2.65 1.067 2.65 2.384v1.827c0 1.317-1.189 2.384-2.65 2.384Z" fill="#fff" fill-rule="evenodd" data-name="Path 215"/></g></g><g data-name="Group 317"><path d="M335.315 1738.089c0-1.172-.342-2.181-1.032-3.023a6.621 6.621 0 0 0-2.564-1.914 493.79 493.79 0 0 1-3.33-1.433 68.747 68.747 0 0 1-3.33-1.549c-1.02-.51-1.873-1.27-2.564-2.274-.69-1.009-1.032-2.198-1.032-3.573 0-1.938.702-3.533 2.105-4.78 1.427-1.276 3.342-1.914 5.738-1.914 3.138 0 5.534.905 7.193 2.714l-1.149 1.567c-1.531-1.532-3.521-2.297-5.969-2.297-1.758 0-3.15.429-4.17 1.282-1.022.852-1.532 1.995-1.532 3.422 0 1.149.342 2.135 1.032 2.964.69.83 1.543 1.45 2.564 1.857 1.021.406 2.13.858 3.33 1.357 1.2.5 2.309 1.004 3.33 1.509 1.02.51 1.874 1.282 2.564 2.314.69 1.033 1.032 2.274 1.032 3.73 0 2.089-.818 3.788-2.448 5.088-1.63 1.3-3.66 1.949-6.08 1.949-1.658 0-3.288-.342-4.895-1.033-1.584-.737-2.692-1.682-3.33-2.83l1.265-1.457c.765.992 1.786 1.799 3.057 2.408 1.276.609 2.564.916 3.863.916 1.735 0 3.226-.446 4.473-1.34 1.247-.864 1.874-2.088 1.874-3.672Z" fill="#fff" fill-rule="evenodd" data-name="Path 216"/><path d="M349.888 1719.96h-9.909v-1.99h21.917v1.99h-9.908v24.788h-2.106v-24.787Z" fill="#fff" fill-rule="evenodd" data-name="Path 217"/><path d="M363.044 1731.36c0-3.904 1.276-7.165 3.823-9.793 2.547-2.627 5.749-3.938 9.6-3.938 3.853 0 7.014 1.299 9.56 3.904 2.577 2.575 3.864 5.853 3.864 9.832 0 3.98-1.287 7.176-3.863 9.833-2.553 2.599-5.737 3.904-9.56 3.904-3.823 0-7.025-1.288-9.6-3.863-2.553-2.576-3.824-5.865-3.824-9.868Zm2.216 0c0 3.312 1.073 6.108 3.214 8.376 2.17 2.245 4.832 3.365 7.994 3.365 3.161 0 5.94-1.12 8.034-3.365 2.118-2.268 3.173-5.058 3.173-8.376 0-3.319-1.084-6.184-3.248-8.377-2.14-2.245-4.792-3.365-7.953-3.365-3.162 0-5.854 1.12-7.994 3.365-2.14 2.216-3.214 5.012-3.214 8.377Z" fill="#fff" fill-rule="evenodd" data-name="Path 218"/><path d="m414.911 1740.577.841 1.567c-.916.916-2.123 1.636-3.614 2.163a14.07 14.07 0 0 1-4.687.784c-3.98 0-7.216-1.248-9.717-3.748-2.47-2.471-3.712-5.8-3.712-9.983 0-3.95 1.2-7.217 3.596-9.793 2.396-2.627 5.57-3.938 9.526-3.938 3.393 0 6.096.84 8.11 2.523l-.993 1.566c-1.81-1.404-4.17-2.105-7.077-2.105-3.266 0-5.905 1.108-7.918 3.33-2.013 2.169-3.023 4.97-3.023 8.417 0 3.445 1.045 6.323 3.139 8.492 2.088 2.17 4.832 3.249 8.226 3.249 2.802 0 5.238-.841 7.303-2.524Z" fill="#fff" fill-rule="evenodd" data-name="Path 219"/><path d="M423.398 1744.748h-2.106v-26.777h2.106v26.772Zm13.847-26.771h2.564l-12.658 12.657 13.197 14.114h-2.714l-12.966-13.963 12.583-12.814Z" fill="#fff" fill-rule="evenodd" data-name="Path 220"/></g></g></svg>