<?xml version="1.0" encoding="UTF-8"?>
<svg id="Layer_2" data-name="Layer 2" xmlns="http://www.w3.org/2000/svg" viewBox="0 0 143.98 143.97">
  <defs>
    <style>
      .cls-1 {
        fill: #fff;
      }
    </style>
  </defs>
  <g id="Layer_1-2" data-name="Layer 1">
    <g>
      <path class="cls-1" d="m61.7,10.28c0-5.68,4.6-10.28,10.28-10.28s10.28,4.6,10.28,10.28v41.13c0,5.68-4.6,10.28-10.28,10.28s-10.28-4.6-10.28-10.28V10.28Z"/>
      <path class="cls-1" d="m122.89,122.89c-28.11,28.11-73.69,28.11-101.81,0-28.11-28.11-28.11-73.69,0-101.81,4.01-3.99,10.49-3.99,14.5,0,4,3.85,4.13,10.22.28,14.22-.09.09-.18.19-.28.28-20.05,20.1-20.01,52.66.09,72.71,20.1,20.05,52.66,20.01,72.71-.09,20.02-20.07,20.02-52.55,0-72.62-4-3.85-4.13-10.22-.28-14.22.09-.09.18-.19.28-.28,4.01-3.99,10.49-3.99,14.5,0,28.11,28.11,28.12,73.69,0,101.8h0Z"/>
    </g>
  </g>
</svg>