<svg xmlns="http://www.w3.org/2000/svg" width="80.981" height="53.949" viewBox="302.726 10.852 80.981 53.949"><path d="M378.258 64.8H308.12a5.396 5.396 0 0 1-5.395-5.396V36.71h3.886l.877-2.123h1.963l.874 2.113h7.648v-1.607l.683 1.619h3.97l.684-1.646v1.641h19.002v-3.47h.359c.256.008.33.03.33.458v3.017h9.831v-.807c1.005.51 2.19.809 3.446.809.072 0 .142 0 .214-.002h-.011 4.136l.886-2.113h1.962l.865 2.113h7.972V34.7l1.205 2.01h6.375V23.439h-6.31v1.566l-.884-1.566h-6.487v1.566l-.812-1.566h-8.76a7.803 7.803 0 0 0-3.842.793l.047-.02v-.773h-6.042v.773a3.658 3.658 0 0 0-2.583-.771h.013-22.082l-1.48 3.428-1.523-3.428h-6.955v1.567l-.767-1.567h-5.935l-2.749 6.294V16.247a5.396 5.396 0 0 1 5.395-5.395h70.138a5.397 5.397 0 0 1 5.395 5.395v23.56h-4.21c-.068-.005-.149-.005-.228-.005a4.75 4.75 0 0 0-2.637.793l.018-.011v-.778h-6.227a4.323 4.323 0 0 0-2.731.785l.014-.01v-.777H356.54v.778a6.031 6.031 0 0 0-2.983-.778h-.088.005-7.336v.778a5.065 5.065 0 0 0-3.227-.776l.02-.002h-8.208l-1.879 2.032-1.758-2.032h-12.26v13.281h12.03l1.936-2.064 1.823 2.064h7.416v-3.109h1.034a7.257 7.257 0 0 0 2.914-.488l-.05.018v3.584h6.115v-3.46h.295c.373 0 .41.013.41.391v3.07h18.583a5.224 5.224 0 0 0 3.113-.861l-.02.012v.85h5.894a7.818 7.818 0 0 0 3.388-.634l-.052.02v6.928a5.397 5.397 0 0 1-5.395 5.396l-.002-.003Zm-28.09-13.576h-2.287v-9.52h5.251a5.506 5.506 0 0 1 2.772.463l-.036-.014a2.244 2.244 0 0 1 1.173 1.97c0 .051-.002.1-.004.15v-.007l.002.086a2.66 2.66 0 0 1-1.603 2.44l-.018.008c.452.162.83.438 1.11.795l.005.005a2.759 2.759 0 0 1 .378 1.751l.002-.013v1.883h-2.284V50.03a2.734 2.734 0 0 0-.366-1.875l.007.011a2.205 2.205 0 0 0-1.682-.42l.014-.002h-2.433v3.48Zm0-7.553v2.137h2.766a2.182 2.182 0 0 0 1.137-.202l-.013.007c.286-.187.472-.504.472-.866 0-.018 0-.033-.002-.052v.003c.002-.018.002-.038.002-.059a.91.91 0 0 0-.467-.795l-.005-.003a2.172 2.172 0 0 0-1.088-.18h.01l-2.811.01Zm-20.287 7.55h-9.007v-9.518h9.149l2.799 3.12 2.893-3.12h7.267c2.581 0 3.835 1.028 3.835 3.136 0 2.147-1.296 3.19-3.956 3.19h-2.844v3.19h-4.422l-2.8-3.145-2.911 3.147h-.003Zm7.87-8.497-3.493 3.754 3.493 3.876v-7.63Zm-14.61 4.62v1.893h5.594l2.585-2.793-2.486-2.773h-5.695v1.73h4.995v1.94l-4.992.003Zm16.876-3.671v2.423h2.938c.9 0 1.417-.459 1.417-1.259 0-.764-.482-1.166-1.392-1.166l-2.963.002Zm40.55 7.553h-4.393V49.18h4.374a1.258 1.258 0 0 0 .924-.238l-.002.002a.837.837 0 0 0 .268-.613v-.037a.783.783 0 0 0-.277-.597 1.154 1.154 0 0 0-.805-.212h.005l-.42-.013c-2.055-.054-4.382-.117-4.382-2.934 0-1.371.859-2.835 3.262-2.835h4.534v2.028h-4.147a1.559 1.559 0 0 0-.926.184l.008-.004a.74.74 0 0 0-.33.679v-.002.024c0 .32.207.59.494.684l.005.002a2.517 2.517 0 0 0 .881.108h-.006l1.234.031a3.559 3.559 0 0 1 2.587.771l-.007-.004c.068.054.126.112.178.178l.002.002.027 3.624a3.545 3.545 0 0 1-3.104 1.216l.016.002Zm-8.878 0h-4.433V49.18h4.41a1.295 1.295 0 0 0 .933-.238l-.004.002a.837.837 0 0 0 .265-.613v-.023a.816.816 0 0 0-.276-.611 1.184 1.184 0 0 0-.816-.212h.004l-.418-.013c-2.048-.054-4.372-.117-4.372-2.934 0-1.371.854-2.835 3.253-2.835h4.559v2.028h-4.173a1.54 1.54 0 0 0-.92.184l.01-.004a.795.795 0 0 0 .148 1.392l.005.002a2.554 2.554 0 0 0 .892.108h-.006l1.225.031a3.616 3.616 0 0 1 2.603.773l-.007-.006a2.658 2.658 0 0 1 .679 2.025v-.011c.007 1.985-1.196 2.996-3.567 2.996l.006.005Zm-5.795 0h-7.598v-9.525h7.591v1.967h-5.32V45.4h5.196v1.94h-5.197v1.893l5.328.009V51.226Zm4.429-16.379h-4.634l-.885-2.122h-4.726l-.858 2.122h-2.662a4.902 4.902 0 0 1-3.309-1.059l.011.007a4.771 4.771 0 0 1-1.214-3.653l-.002.018a4.975 4.975 0 0 1 1.232-3.725l-.005.005a4.57 4.57 0 0 1 3.473-1.106l-.017-.003h2.203v2.03h-2.159a2.166 2.166 0 0 0-1.754.564l.004-.002a3.131 3.131 0 0 0-.655 2.167v-.01a3.274 3.274 0 0 0 .632 2.243l-.007-.01a2.21 2.21 0 0 0 1.594.49h-.01 1.021l3.217-7.485h3.417l3.851 8.992v-8.992h3.464l3.997 6.627v-6.627h2.338v9.513h-3.246l-4.316-7.144v7.144l.005.016Zm-7.866-7.908-1.567 3.794h3.14l-1.573-3.794Zm-22.028 7.904h-2.275v-9.518h5.233a5.298 5.298 0 0 1 2.79.47l-.034-.014a2.24 2.24 0 0 1 1.15 2.115v-.006.07a2.698 2.698 0 0 1-1.586 2.459l-.018.006c.452.171.832.445 1.122.796l.004.005a2.726 2.726 0 0 1 .376 1.76l.002-.014v1.868h-2.296l-.008-1.2v-.18a2.493 2.493 0 0 0-.366-1.684l.006.012a2.234 2.234 0 0 0-1.673-.407l.014-.003h-2.44v3.462l-.001.003Zm0-7.538v2.113h2.76a2.055 2.055 0 0 0 1.135-.202l-.011.004a.982.982 0 0 0 .472-.838c0-.02 0-.043-.002-.063v.002c.002-.018.002-.038.002-.058a.877.877 0 0 0-.476-.78l-.005-.003a2.305 2.305 0 0 0-1.086-.18h.007l-2.796.005Zm-24.09 7.538h-4.622l-.874-2.122h-4.739l-.88 2.122h-2.474l4.076-9.518h3.379l3.868 9.007v-9.007h3.712l2.976 6.454 2.736-6.454h3.788v9.513h-2.338l-.005-7.445-3.298 7.447h-1.996l-3.307-7.458v7.458l-.002.003Zm-7.877-7.904-1.549 3.794h3.107l-1.558-3.794Zm42.46 7.901h-2.32v-9.515h2.323v9.513l-.003.002Zm-14.355 0h-7.585v-9.515h7.598v1.978h-5.323v1.715h5.195v1.954h-5.2v1.901h5.323v1.965l-.008.002Z" fill="#bfbfbf" fill-rule="evenodd" data-name="Path 457"/></svg>