<svg xmlns="http://www.w3.org/2000/svg" width="83.562" height="64.802" viewBox="153.355 0 83.562 64.802"><path d="M229.204 57.579h-.045c-.936 0-1.778.4-2.366 1.036l-.003.003a3.801 3.801 0 0 0-.991 2.564c0 .988.377 1.891.994 2.567l-.003-.003a3.213 3.213 0 0 0 2.369 1.04h.045-.003a2.497 2.497 0 0 0 2.18-1.007l.003-.007v.864h1.472v-9.647h-1.472v3.607a2.574 2.574 0 0 0-2.05-1.02c-.046 0-.091 0-.137.003h.007Zm-13.809 0h-.075c-.939 0-1.787.39-2.388 1.017a3.868 3.868 0 0 0-.991 2.59c0 .997.377 1.907.994 2.592l-.003-.003a3.31 3.31 0 0 0 2.391 1.017h.078-.003a2.432 2.432 0 0 0 2.125-1.01l.007-.007v.864h1.527v-6.856h-1.524v.813a2.524 2.524 0 0 0-2.024-1.02c-.04 0-.078 0-.114.003h.006-.006Zm-6.654 0c-.043-.004-.088-.004-.137-.004a3.607 3.607 0 0 0 0 7.214c.05 0 .098 0 .143-.004h-.006c.039 0 .084.004.133.004.877 0 1.68-.306 2.313-.82l-.006.007-.712-1.218a2.843 2.843 0 0 1-1.644.61h-.006c-.04.004-.088.004-.134.004a2.11 2.11 0 0 1-1.49-.614 2.41 2.41 0 0 1-.583-1.573c0-.6.221-1.153.585-1.576l-.003.004c.364-.377.87-.611 1.433-.611h.068-.003c.673.003 1.29.23 1.784.614l-.007-.007.712-1.218a3.786 3.786 0 0 0-2.36-.816h-.08.003l-.003.004Zm-13.257 0h-.081c-.93 0-1.765.39-2.356 1.017a3.628 3.628 0 0 0-.965 2.606v-.007c-.003.045-.003.097-.003.15 0 .958.38 1.829.994 2.466a3.401 3.401 0 0 0 2.408.99c.035 0 .075 0 .11-.003h-.006c.039 0 .087.004.133.004a4.125 4.125 0 0 0 2.668-.975l-.007.006-.712-1.114a3.022 3.022 0 0 1-1.975.76h-.003c-.052.003-.11.007-.17.007a1.929 1.929 0 0 1-1.91-1.674v-.01h5.128v-.607c.003-.052.003-.11.003-.169 0-.939-.348-1.797-.923-2.45l.003.003a3.04 3.04 0 0 0-2.261-1.004h-.072.003l-.006.004Zm-9.998.204v1.371h1.42v3.1c0 1.683.803 2.538 2.385 2.538h.055c.657 0 1.264-.195 1.774-.527l-.013.007-.409-1.27c-.38.217-.835.347-1.32.357h-.002c-.644 0-.969-.374-.969-1.114v-3.087h2.437v-1.371h-2.437v-2.08h-1.524v2.08l-1.397-.004Zm-6.39 4.972-.66 1.17a5.09 5.09 0 0 0 2.852.864h.098-.007a3.848 3.848 0 0 0 2.323-.62l-.016.009c.507-.348.839-.926.839-1.583v-.045.003c0-1.144-.803-1.82-2.385-2.03l-.709-.105c-.78-.133-1.17-.37-1.17-.708 0-.507.426-.76 1.271-.76h.016c.796 0 1.544.208 2.19.572l-.023-.013.611-1.219a5.09 5.09 0 0 0-2.615-.715c-.062 0-.127 0-.189.004h.01c-.052-.004-.114-.004-.175-.004-.715 0-1.378.231-1.914.621l.01-.007c-.465.364-.76.927-.76 1.56v.068-.003c0 1.111.802 1.777 2.384 1.979l.66.104c.809.136 1.218.374 1.218.711 0 .572-.52.865-1.576.865h-.029a3.902 3.902 0 0 1-2.268-.722l.013.01v-.006Zm-5.79-5.18h-.082c-.926 0-1.764.39-2.352 1.017a3.949 3.949 0 0 0 .003 5.186l-.003-.003a3.224 3.224 0 0 0 2.355 1.017h.085-.004a2.573 2.573 0 0 0 2.183-1.01l.004-.007v.864h1.472v-6.856h-1.472v.813a2.75 2.75 0 0 0-2.138-1.017h-.052.003l-.003-.004Zm47.723.205v6.856h1.472v-3.857c0-1.176.494-1.774 1.472-1.774h.032c.322 0 .627.075.897.208l-.013-.007.455-1.423a2.347 2.347 0 0 0-.968-.204c-.036 0-.068 0-.104.003h.006-.055c-.738 0-1.38.406-1.716 1.007l-.006.01v-.812l-1.472-.007Zm-20.762 0v6.856h1.524v-3.857c0-1.176.494-1.774 1.472-1.774h.032c.322 0 .627.075.897.208l-.013-.007.458-1.423c-.3-.13-.643-.204-1.007-.204h-.062.003-.058c-.738 0-1.378.406-1.712 1.007l-.007.01v-.813l-1.527-.003ZM165.54 59c1.01 0 1.523.614 1.523 1.82v3.807h1.524v-4.315c0-.032.004-.068.004-.107 0-.715-.283-1.361-.741-1.839a2.888 2.888 0 0 0-1.98-.78h-.028a2.619 2.619 0 0 0-2.378 1.209l-.007.01a2.452 2.452 0 0 0-2.29-1.219h.006-.03c-.802 0-1.513.4-1.946 1.01l-.006.007v-.812h-1.518v6.856h1.524V60.83c0-1.212.566-1.82 1.677-1.82 1.01 0 1.524.615 1.524 1.82v3.808h1.472v-3.808c0-1.215.565-1.82 1.673-1.82L165.54 59ZM211.08.007h-.107a25.261 25.261 0 0 0-14.248 4.373l.088-.055c4.21 3.43 7.36 8.022 8.961 13.286l.052.195c.767 2.42 1.206 5.202 1.206 8.09 0 2.856-.433 5.608-1.232 8.2l.052-.194c-1.637 5.452-4.799 10.03-8.987 13.38l-.052.042c4.003 2.704 8.938 4.315 14.248 4.315 3.639 0 7.099-.757 10.235-2.122l-.166.065c6.232-2.641 11.092-7.502 13.669-13.565l.062-.166c1.3-2.956 2.056-6.404 2.056-10.026 0-3.623-.756-7.07-2.121-10.19l.065.163c-2.642-6.236-7.516-11.096-13.592-13.663l-.165-.062c-2.947-1.3-6.382-2.057-9.991-2.057h-.036.003v-.01Zm-31.88 0h-.037c-3.61 0-7.047.757-10.153 2.118l.162-.065c-6.248 2.629-11.119 7.493-13.698 13.565l-.062.166c-1.3 2.957-2.057 6.404-2.057 10.027 0 3.623.757 7.07 2.122 10.19l-.065-.163c2.641 6.232 7.502 11.093 13.565 13.67l.166.06c2.97 1.3 6.433 2.058 10.07 2.058a25.547 25.547 0 0 0 14.338-4.374l-.091.059c-4.234-3.415-7.395-8.013-8.987-13.286l-.05-.192c-.743-2.391-1.172-5.14-1.172-7.99 0-8.659 3.957-16.395 10.163-21.496l.05-.039C189.488 1.612 184.585 0 179.305 0h-.117.007l.003.007Zm15.94 5.533c-4.085 3.174-7.135 7.496-8.685 12.483l-.05.179c-.74 2.29-1.169 4.929-1.169 7.665 0 2.71.42 5.319 1.196 7.772l-.049-.182c1.589 5.17 4.653 9.49 8.698 12.603l.059.043c4.103-3.155 7.167-7.477 8.71-12.467l.05-.176c.727-2.271 1.146-4.884 1.146-7.593 0-2.74-.429-5.374-1.218-7.85l.049.182c-1.599-5.166-4.65-9.488-8.676-12.62l-.058-.042-.003.003Zm34.265 57.825h-.055a1.947 1.947 0 0 1-1.44-.633 2.328 2.328 0 0 1-.584-1.55c0-.595.22-1.137.588-1.553l-.003.003c.38-.393.91-.637 1.498-.637a2.07 2.07 0 0 1 1.498.637c.36.416.581.962.581 1.56 0 .598-.22 1.143-.585 1.563l.004-.004c-.365.38-.878.614-1.443.614h-.059.004-.004Zm-13.857 0h-.072c-.552 0-1.05-.233-1.4-.607a2.497 2.497 0 0 1 .003-3.152l-.003.003c.35-.377.848-.61 1.4-.61h.075-.003.058c.569 0 1.082.243 1.436.633.364.393.585.92.585 1.498v.065-.003c0 .026.003.058.003.088 0 .571-.21 1.091-.562 1.49l.004-.002c-.361.37-.861.597-1.417.597-.036 0-.075 0-.11-.003h.006l-.003.003Zm-42.038 0c-.03 0-.062.004-.094.004a1.958 1.958 0 0 1-1.427-.611 2.497 2.497 0 0 1 .003-3.152l-.003.003a1.972 1.972 0 0 1 1.53-.607h-.003.075c.556 0 1.056.244 1.397.633l.003.004a2.46 2.46 0 0 1-.003 3.122l.003-.003c-.35.377-.85.61-1.406.61h-.072.003l-.006-.003Zm23.71-2.794h-3.552a1.785 1.785 0 0 1 3.554-.006v.006h-.003Z" fill="#bfbfbf" fill-rule="evenodd" data-name="Path 456"/></svg>