<svg xmlns="http://www.w3.org/2000/svg" width="58.249" height="18.682" viewBox="152.474 6.244 58.249 18.682"><path d="M186.614 24.91h-1.646v-6.855h3.78a3.965 3.965 0 0 1 1.996.333l-.026-.009a1.616 1.616 0 0 1 .84 1.526V19.9c0 .018.003.04.003.062 0 .787-.474 1.463-1.155 1.758l-.012.004c.325.117.597.316.8.573l.003.004a1.992 1.992 0 0 1 .271 1.26l.001-.01v1.357h-1.643v-.858a1.97 1.97 0 0 0-.264-1.35l.004.008a1.584 1.584 0 0 0-1.21-.302l.01-.002h-1.752v2.505Zm0-5.438v1.539h1.992a1.57 1.57 0 0 0 .819-.146l-.01.005a.742.742 0 0 0 .34-.623c0-.013 0-.025-.002-.037v.001l.001-.042a.656.656 0 0 0-.336-.573l-.003-.001a1.564 1.564 0 0 0-.784-.13h.007l-2.024.007Zm-14.606 5.436h-6.486v-6.853h6.588l2.015 2.247 2.083-2.247h5.232c1.858 0 2.761.74 2.761 2.258 0 1.546-.934 2.297-2.848 2.297h-2.048v2.296h-3.183l-2.017-2.264-2.096 2.266h-.001Zm5.665-6.118-2.515 2.703 2.515 2.79V18.79Zm-10.517 3.326v1.363h4.026l1.861-2.01-1.79-1.997h-4.1v1.246h3.597v1.396l-3.594.002Zm12.15-2.643v1.745h2.115c.647 0 1.02-.33 1.02-.906 0-.55-.347-.84-1.002-.84l-2.134.001Zm29.194 5.438h-3.162v-1.473h3.15a.904.904 0 0 0 .665-.172l-.003.002a.6.6 0 0 0 .193-.441V22.8a.563.563 0 0 0-.2-.43.83.83 0 0 0-.578-.153h.003l-.302-.01c-1.48-.039-3.155-.084-3.155-2.112 0-.987.618-2.04 2.347-2.04h3.266v1.46h-2.986a1.12 1.12 0 0 0-.667.133l.006-.004a.53.53 0 0 0-.238.488v-.001.018c0 .23.149.424.356.492l.003.001a1.812 1.812 0 0 0 .635.078h-.005l.889.023a2.564 2.564 0 0 1 1.863.555l-.006-.003c.049.038.091.08.128.127l.002.002.02 2.609a2.554 2.554 0 0 1-2.235.875l.01.002Zm-6.392 0h-3.191v-1.473h3.175a.925.925 0 0 0 .672-.171l-.004.001a.601.601 0 0 0 .191-.441v-.017a.59.59 0 0 0-.198-.44.855.855 0 0 0-.588-.152h.003l-.301-.01c-1.475-.038-3.147-.084-3.147-2.112 0-.987.614-2.04 2.341-2.04h3.283v1.46h-3.005a1.108 1.108 0 0 0-.661.133l.006-.004a.572.572 0 0 0 .107 1.002l.004.001c.16.05.345.081.538.081.035 0 .07-.002.104-.003h-.005l.882.023a2.604 2.604 0 0 1 1.874.557l-.005-.006a1.91 1.91 0 0 1 .489 1.459v-.008c.005 1.429-.861 2.157-2.568 2.157l.004.003Zm-4.173 0h-5.47v-6.857h5.466v1.416h-3.832v1.246h3.743v1.397h-3.743v1.363l3.836.006V24.911Zm3.189-11.792h-3.335l-.638-1.528h-3.402l-.619 1.528h-1.915a3.528 3.528 0 0 1-2.382-.762l.007.005a3.436 3.436 0 0 1-.874-2.63l-.002.013a3.579 3.579 0 0 1 .887-2.682l-.003.003a3.29 3.29 0 0 1 2.5-.796l-.013-.002h1.587V7.73h-1.553a1.56 1.56 0 0 0-1.263.406l.001-.002a2.256 2.256 0 0 0-.47 1.56v-.007a2.36 2.36 0 0 0 .455 1.615l-.006-.007a1.588 1.588 0 0 0 1.148.353h-.006.734l2.316-5.39h2.46l2.772 6.474V6.26h2.494l2.878 4.77V6.26h1.683v6.849h-2.336l-3.108-5.144v5.144l.003.011Zm-5.663-5.693-1.128 2.731h2.26l-1.132-2.731Zm-15.86 5.69h-1.637V6.264h3.767a3.816 3.816 0 0 1 2.009.338l-.024-.01a1.61 1.61 0 0 1 .829 1.523V8.11v.05c0 .788-.47 1.467-1.143 1.77l-.013.006c.325.123.599.32.808.573l.002.003a1.961 1.961 0 0 1 .272 1.267l.001-.01v1.345h-1.653l-.006-.864v-.13a1.799 1.799 0 0 0-.263-1.212l.004.009a1.61 1.61 0 0 0-1.204-.293l.01-.002h-1.757v2.492l-.001.002Zm0-5.427v1.522h1.988a1.475 1.475 0 0 0 .817-.146l-.008.003a.708.708 0 0 0 .34-.603c0-.015 0-.031-.002-.046v.002c.003-.013.003-.028.003-.042a.633.633 0 0 0-.344-.562l-.003-.001a1.66 1.66 0 0 0-.782-.13h.005l-2.013.003Zm-17.343 5.427h-3.327l-.63-1.528h-3.413l-.633 1.528h-1.78l2.933-6.852h2.433l2.785 6.485V6.264h2.673l2.142 4.646 1.97-4.646h2.727v6.849h-1.683l-.004-5.36-2.373 5.361h-1.437l-2.382-5.37v5.372Zm-5.672-5.69-1.114 2.731h2.236l-1.122-2.731Zm30.57 5.688h-1.67v-6.85h1.672v6.849l-.001.001Zm-10.335 0h-5.46v-6.85h5.47v1.424h-3.832v1.235h3.74v1.406h-3.744v1.37h3.832v1.414l-.006.001Z" fill="#ccc" fill-rule="evenodd" data-name="Path 464"/></svg>