<svg xmlns="http://www.w3.org/2000/svg" width="163.827" height="44.349" viewBox="440.94 10.226 163.827 44.349"><g data-name="paypal-logo"><g data-name="Group 320"><g data-name="Group 319"><path d="M470.303 17.45c-.536-1.075-1.385-1.963-2.438-2.629-1.098-.673-2.395-1.144-3.877-1.423-1.508-.273-3.25-.397-5.268-.416l-9.318.006c-.968.013-1.917.767-2.145 1.703l-6.269 27.307c-.228.923.38 1.696 1.349 1.696h4.462c.968 0 1.927-.75 2.142-1.696l1.53-6.63c.205-.923 1.16-1.694 2.139-1.694h1.277c5.457-.006 9.682-1.12 12.717-3.354 3.052-2.236 4.557-5.19 4.557-8.85-.003-1.602-.267-2.947-.858-4.02Zm-9.623 8.922c-1.35.988-3.224 1.482-5.642 1.482h-1.092c-.972 0-1.567-.767-1.356-1.703l1.343-5.798c.188-.93 1.166-1.7 2.125-1.694l1.463-.01c1.706 0 3.01.296 3.88.868.861.566 1.294 1.466 1.287 2.659.026 1.813-.666 3.208-2.008 4.196Z" fill="#bfbfbf" fill-rule="evenodd" data-name="Path 222"/></g></g><g data-name="Group 322"><g data-name="Group 321"><path d="m597.507 15.12-.28.085-.373.052-.458-.072-.234-.227-.108-.358-.006-.536v-1.986h1.492v-.614h-1.492v-1.238h-.738v1.238h-.5v.614h.5v2.311l.345 1.144 1.014.364.425-.036.452-.088v-.653Z" fill="#bfbfbf" fill-rule="evenodd" data-name="Path 223"/></g></g><g data-name="Group 324"><g data-name="Group 323"><path d="m604.426 11.78-1.066-.44-.786.16-.8.54-.464-.518-.754-.178-.725.159-.686.442v-.481h-.725v4.339h.722v-3.24l.608-.378.604-.149.494.088.244.25.107.416.036.536v2.48h.725V13.03l-.013-.23-.013-.212.617-.393.611-.153.478.088.26.25.09.42.05.53v2.48h.728V12.99l-.342-1.212Z" fill="#bfbfbf" fill-rule="evenodd" data-name="Path 224"/></g></g><g data-name="Group 326"><g data-name="Group 325"><path d="M491.821 21.354c-1.684-.95-4.342-1.424-7.975-1.424-1.798 0-3.588.14-5.399.42-1.335.204-1.465.243-2.288.422-1.696.37-1.963 2.064-1.963 2.064l-.546 2.245c-.308 1.434.517 1.378.862 1.258.74-.22 1.153-.448 2.668-.786 1.446-.329 2.97-.576 4.18-.56 1.784 0 3.149.19 4.059.573.896.39 1.345 1.06 1.345 2.028l-.078.63-.644.397c-2.531.159-4.361.393-6.58.715-2.172.302-4.076.832-5.659 1.556-1.7.748-2.96 1.752-3.841 3.03-.852 1.283-1.278 2.84-1.278 4.666 0 1.72.618 3.14 1.817 4.238 1.206 1.08 2.798 1.606 4.703 1.606 1.206-.007 2.138-.101 2.801-.26l2.162-.744 1.83-1.014 1.683-1.112.023.033-.17.715-.01.029v.006c-.181.871.345 1.586 1.193 1.67l.017.02h4.143l.059-.026c.89-.104 1.726-.819 1.92-1.67l3.254-14.082.169-1.148.078-1.075c.013-1.996-.848-3.475-2.535-4.42Zm-7.195 15.834-.696.916-1.755.907c-.825.335-1.609.504-2.333.504-1.099 0-1.96-.16-2.542-.485l-.861-1.673c0-.907.208-1.625.653-2.178l1.892-1.287c.809-.273 1.797-.504 2.94-.663 1.021-.127 3.036-.357 3.3-.364l.308.543c-.061.309-.633 2.7-.906 3.78Z" fill="#bfbfbf" fill-rule="evenodd" data-name="Path 225"/></g></g><g data-name="Group 328"><g data-name="Group 327"><path d="M572.869 21.373c-1.693-.949-4.348-1.427-7.972-1.427-1.797 0-3.591.14-5.395.43-1.34.194-1.472.237-2.298.412-1.693.367-1.956 2.067-1.956 2.067l-.546 2.243c-.306 1.433.5 1.368.877 1.257.744-.22 1.144-.438 2.646-.79 1.44-.324 2.977-.565 4.189-.558 1.778 0 3.143.191 4.05.575.903.39 1.345 1.066 1.345 2.025l-.068.627-.637.406c-2.558.153-4.391.387-6.588.709-2.165.302-4.076.828-5.662 1.556-1.693.751-2.97 1.755-3.841 3.036-.861 1.284-1.28 2.837-1.28 4.647 0 1.733.61 3.153 1.826 4.245 1.212 1.076 2.788 1.615 4.693 1.615 1.2-.013 2.132-.091 2.798-.263l2.155-.735 1.846-1.014 1.67-1.124.03.036-.153.721-.016.013.006.013c-.201.871.328 1.593 1.186 1.67l.007.017h4.14l.069-.023c.88-.107 1.712-.822 1.898-1.683l3.262-14.063.173-1.154.094-1.079c.003-1.989-.848-3.461-2.548-4.407Zm-7.18 15.834-.724.926-1.739.9c-.825.332-1.612.504-2.323.504-1.135 0-1.973-.162-2.539-.487l-.87-1.667c0-.91.21-1.622.636-2.184.433-.53 1.092-.966 1.911-1.284.8-.273 1.788-.494 2.938-.66 1.014-.127 3.023-.364 3.283-.367l.315.543c-.045.308-.62 2.69-.887 3.776Z" fill="#bfbfbf" fill-rule="evenodd" data-name="Path 226"/></g></g><g data-name="Group 330"><g data-name="Group 329"><path d="M551.338 17.551c-.56-1.082-1.398-1.956-2.457-2.639-1.086-.676-2.373-1.15-3.877-1.423-1.48-.264-3.244-.407-5.25-.41l-9.33.007c-.971.016-1.904.77-2.128 1.696l-6.276 27.32c-.228.926.396 1.693 1.345 1.693l4.469-.007c.949.007 1.92-.754 2.145-1.69l1.511-6.633c.221-.923 1.18-1.7 2.145-1.693h1.277c5.464 0 9.698-1.125 12.747-3.35 3.013-2.253 4.537-5.2 4.537-8.864-.016-1.595-.293-2.944-.858-4.007Zm-9.623 8.934c-1.346.969-3.224 1.463-5.63 1.463h-1.11c-.96.01-1.58-.77-1.366-1.7l1.352-5.788c.198-.926 1.167-1.703 2.132-1.693l1.446-.01c1.716.01 3.003.292 3.88.864.875.572 1.288 1.47 1.298 2.659.01 1.813-.663 3.21-2.002 4.205Z" fill="#bfbfbf" fill-rule="evenodd" data-name="Path 227"/></g></g><g data-name="Group 332"><g data-name="Group 331"><path d="M589.6 15c.205-.933-.38-1.69-1.34-1.677h-3.997c-.819 0-1.556.608-1.917 1.355l-.221.345-.202.884-5.586 25.395-.182.78.006.02c-.185.835.328 1.465 1.121 1.586l.069.094h4.15c.812 0 1.576-.618 1.924-1.378l.214-.325 5.974-27.076L589.6 15Z" fill="#bfbfbf" fill-rule="evenodd" data-name="Path 228"/></g></g><g data-name="Group 334"><g data-name="Group 333"><path d="M522.143 20.271c-1.056.013-5.35 0-5.35 0-.961 0-2.196.777-2.807 1.703 0 0-6.39 10.966-7.01 12.068l-.741-.01-1.99-11.983c-.22-.942-1.205-1.748-2.43-1.748l-3.998.006c-.962 0-1.553.767-1.336 1.703 0 0 3.036 17.274 3.644 21.34.282 2.242-.036 2.642-.036 2.642l-3.952 6.883c-.585.936-.27 1.7.689 1.7l4.621-.007c.962 0 2.227-.757 2.799-1.696l17.777-30.069c0 .003 1.71-2.567.12-2.532Z" fill="#bfbfbf" fill-rule="evenodd" data-name="Path 229"/></g></g></g></svg>