<svg xmlns="http://www.w3.org/2000/svg" width="98.815" height="30.42" viewBox="-3338.384 -15661.42 98.815 30.42"><g data-name="CompositeLayer"><path d="m-3310.574-15660.88-7.867 20.098-.838-3.035c-1.552-3.656-5.956-8.907-11.127-12.217l7.193 24.577 8.499-.014 12.649-29.415-8.51.006Z" fill="#bfbfbf" fill-rule="evenodd" data-name="Path 452"/><path d="M-3322.329-15658.77c-.466-1.796-1.82-2.331-3.499-2.395h-12.453l-.103.587c9.69 2.35 16.103 8.015 18.764 14.826l-2.709-13.019Z" fill="#bfbfbf" fill-rule="evenodd" data-name="Path 453"/><path d="M-3274.503-15655.263c2.627-.042 4.532.533 6.011 1.128l.725.34 1.087-6.387c-1.59-.597-4.084-1.237-7.195-1.237-7.937 0-13.531 3.997-13.575 9.725-.051 4.233 3.985 6.597 7.034 8.007 3.13 1.447 4.18 2.366 4.165 3.657-.025 1.973-2.495 2.878-4.803 2.878-3.216 0-4.925-.445-7.563-1.544l-1.035-.47-1.13 6.596c1.88.824 5.349 1.532 8.95 1.57 8.442 0 13.929-3.95 13.987-10.071.035-3.349-2.107-5.904-6.75-8.001-2.809-1.368-4.528-2.277-4.51-3.657 0-1.224 1.458-2.534 4.602-2.534" fill="#bfbfbf" fill-rule="evenodd" data-name="Path 454"/><path d="M-3246.068-15660.88h-6.205c-1.928 0-3.361.525-4.208 2.446l-11.926 27.008h8.435s1.375-3.632 1.687-4.427c.924 0 9.119.012 10.286.012.24 1.029.98 4.415.98 4.415h7.45l-6.499-29.454Zm-9.905 18.995c.66-1.692 3.2-8.237 3.2-8.237-.044.081.655-1.704 1.07-2.813l.541 2.54s1.54 7.037 1.861 8.51h-6.672Z" fill="#bfbfbf" fill-rule="evenodd" data-name="Path 455"/><path d="m-3298.818-15660.913-5.022 29.47h8.032l5.026-29.47h-8.036Z" fill="#bfbfbf" fill-rule="evenodd" data-name="Path 451"/></g></svg>